<svg width="48" height="48" viewBox="0 0 48 48" fill="none" xmlns="http://www.w3.org/2000/svg">
<circle cx="24" cy="24" r="24" fill="#FFB577" fill-opacity="0.07"/>
<path d="M31.0011 18.1441C31.0225 18.002 31.013 17.8571 30.9733 17.719C30.9336 17.581 30.8647 17.4531 30.7711 17.3441C30.6752 17.2349 30.5566 17.1479 30.4236 17.0891C30.2907 17.0304 30.1465 17.0014 30.0011 17.0041V15.0041C30.0011 14.7389 29.8958 14.4845 29.7082 14.297C29.5207 14.1094 29.2663 14.0041 29.0011 14.0041H27.0011V13.4141L27.7111 12.7141C27.8994 12.5258 28.0052 12.2704 28.0052 12.0041C28.0052 11.7378 27.8994 11.4824 27.7111 11.2941C27.5228 11.1058 27.2674 11 27.0011 11C26.7348 11 26.4794 11.1058 26.2911 11.2941L25.2911 12.2941C25.1984 12.3875 25.1251 12.4983 25.0754 12.6202C25.0256 12.742 25.0004 12.8725 25.0011 13.0041V14.0041H18.0011C17.7359 14.0041 17.4816 14.1094 17.294 14.297C17.1065 14.4845 17.0011 14.7389 17.0011 15.0041V17.0041C16.8575 17.0028 16.7152 17.0326 16.5841 17.0912C16.4529 17.1499 16.3359 17.2361 16.2411 17.3441C16.1476 17.4531 16.0786 17.581 16.0389 17.719C15.9992 17.8571 15.9898 18.002 16.0111 18.1441L18.0111 32.0741V35.0041C18.0111 35.2693 18.1165 35.5237 18.304 35.7112C18.4916 35.8987 18.7459 36.0041 19.0111 36.0041H28.0111C28.2763 36.0041 28.5307 35.8987 28.7182 35.7112C28.9058 35.5237 29.0111 35.2693 29.0111 35.0041V32.0741L31.0011 18.1441ZM18.1511 19.0041H28.8511L27.1311 31.0041H19.8711L18.1511 19.0041ZM19.0011 16.0041H28.0011V17.0041H19.0011V16.0041ZM27.0011 34.0041H20.0011V33.0041H27.0011V34.0041Z" fill="#FFB577"/>
</svg>
