<svg width="48" height="48" viewBox="0 0 48 48" fill="none" xmlns="http://www.w3.org/2000/svg">
<circle cx="24" cy="24" r="24" fill="#FFB577" fill-opacity="0.07"/>
<path d="M27.6128 20.6217L27.6128 20.6216L27.6117 20.6145C27.2824 18.4185 26.8972 15.8503 24.0651 13.6146C22.5102 12.387 20.893 11.75 19.2607 11.75C16.2913 11.75 14.4201 13.8465 14.3218 13.9594C14.2456 14.0444 13.4937 14.8943 12.8228 16.208C12.1485 17.5285 11.5455 19.3385 11.8162 21.3205C12.1474 23.7458 13.6977 25.8223 16.3613 27.5032L16.3612 27.5034L16.3715 27.5093L16.4221 27.5379L16.4219 27.5382L16.4336 27.544C16.5404 27.5974 17.8409 28.2421 19.3018 28.9317C20.7545 29.6174 22.3913 30.3598 23.1575 30.5977L23.1576 30.5978C23.8435 30.8105 24.4213 30.9144 24.9668 30.9144C25.3967 30.9144 25.801 30.8447 26.1795 30.7089L28.6922 32.2959C28.6471 32.7281 28.6328 33.3458 28.7911 33.9715C28.9715 34.6849 29.3801 35.4189 30.2263 35.8849C30.6607 36.1242 31.148 36.2498 31.6434 36.25H31.6435C32.3529 36.25 33.055 35.9932 33.6039 35.4953C34.22 34.9364 34.53 34.1782 34.493 33.3874C34.9713 33.2394 35.5444 32.9551 35.9112 32.4062L35.9115 32.4058C36.1972 31.9764 36.4293 31.2583 36.0574 30.233C35.6719 29.1672 34.8842 28.6426 34.0361 28.4383C33.2514 28.2492 32.4125 28.3316 31.7676 28.4922L29.5438 26.741C29.6678 25.9958 29.4779 25.2761 28.9784 24.6588C28.0513 23.51 27.8412 22.1478 27.6128 20.6217ZM26.9077 27.9236L26.8731 27.9511L26.8501 27.9888L26.7963 28.0767L26.7954 28.078C26.465 28.6258 26.1223 28.914 25.8155 29.0685C25.5077 29.2234 25.2157 29.2541 24.9676 29.2541C24.6068 29.2541 24.1904 29.1805 23.6463 29.0122C22.9914 28.809 21.4872 28.1282 20.0771 27.4628C18.7012 26.8135 17.4395 26.1909 17.2054 26.0753C14.9496 24.642 13.7118 22.9658 13.4553 21.1023L13.4553 21.1022C13.2388 19.5324 13.7473 18.0361 14.3288 16.914C14.6184 16.3551 14.923 15.895 15.157 15.5728C15.2738 15.4119 15.3728 15.2857 15.443 15.1993C15.5139 15.1121 15.5546 15.0665 15.5545 15.0665L15.5545 15.0665L15.5569 15.0639L15.5569 15.0638C15.5629 15.0572 15.9333 14.6453 16.5792 14.2341C17.2324 13.8184 18.1551 13.4111 19.2612 13.4111C20.4901 13.4111 21.7619 13.9077 23.0439 14.92C25.3556 16.7455 25.6527 18.7055 25.9778 20.8697C25.9778 20.8697 25.9778 20.8697 25.9778 20.8697L25.9812 20.8925C26.2196 22.4812 26.477 24.1969 27.6945 25.705L27.6949 25.7054C27.7977 25.8322 27.8907 25.9812 27.9213 26.1707C27.9512 26.3565 27.9259 26.6121 27.7348 26.9607L27.7347 26.961C27.4873 27.4136 27.1219 27.7401 26.9987 27.8502C26.9947 27.8538 26.9911 27.857 26.9876 27.8601L26.9876 27.8601L26.9077 27.9236ZM27.8891 25.548C28.1213 25.8343 28.3793 26.3051 27.954 27.0809L27.8891 25.548ZM32.6834 32.659L32.9325 32.68L29.9014 31.3936L30.0349 31.1823L30.0345 31.182C30.0345 31.182 30.0344 31.182 30.0343 31.1819L27.661 29.6833C27.837 29.4877 27.9964 29.2775 28.1374 29.0547C28.3939 28.8236 28.6272 28.5682 28.8344 28.2921L31.0822 30.0617L31.0833 30.0625C31.1921 30.1472 31.3201 30.2036 31.4561 30.2265C31.592 30.2495 31.7315 30.2382 31.862 30.1938L31.862 30.1938L31.8658 30.1925C31.9038 30.1788 32.4699 29.9871 33.0844 29.985C33.7022 29.9828 34.2747 30.166 34.5043 30.7999L34.5045 30.8005C34.6382 31.1667 34.6097 31.3731 34.5393 31.48C34.4561 31.6054 34.2705 31.7133 34.031 31.7908C33.8019 31.8648 33.5748 31.8947 33.4734 31.8996C33.3401 31.9051 33.2101 31.9429 33.0946 32.0097C32.9788 32.0766 32.8809 32.1707 32.8094 32.2838C32.7378 32.3969 32.6946 32.5256 32.6834 32.659Z" fill="#FFB577" stroke="#FFB577" stroke-width="0.5"/>
</svg>
