<svg width="15" height="15" viewBox="0 0 15 15" fill="none" xmlns="http://www.w3.org/2000/svg">
<g clip-path="url(#clip0_0_635)">
<path d="M5.06263 13.5888C10.512 13.5888 13.4934 9.07298 13.4934 5.15802C13.4934 5.03107 13.4906 4.90129 13.485 4.77434C14.065 4.35491 14.5655 3.83539 14.963 3.24018C14.4229 3.4805 13.8494 3.63746 13.2621 3.70568C13.8804 3.33504 14.3434 2.75279 14.5652 2.06685C13.9835 2.41159 13.3474 2.65477 12.6841 2.78597C12.2371 2.31108 11.6462 1.99665 11.0026 1.89128C10.3591 1.78592 9.69872 1.8955 9.12368 2.20307C8.54864 2.51065 8.09093 2.99909 7.82133 3.59288C7.55173 4.18667 7.48525 4.85274 7.63216 5.4881C6.45431 5.42899 5.30204 5.12302 4.25003 4.59002C3.19802 4.05701 2.26976 3.30888 1.52543 2.39411C1.14713 3.04635 1.03137 3.81817 1.20168 4.5527C1.37198 5.28723 1.81558 5.92935 2.44232 6.34856C1.9718 6.33362 1.5116 6.20694 1.09972 5.97899V6.01566C1.0993 6.70014 1.33593 7.36364 1.76939 7.89338C2.20285 8.42312 2.80639 8.78641 3.47741 8.92148C3.04155 9.04073 2.5841 9.05811 2.14045 8.97226C2.3298 9.56092 2.69821 10.0758 3.19425 10.445C3.69029 10.8142 4.28923 11.0193 4.90747 11.0317C3.85788 11.8562 2.56134 12.3034 1.22667 12.3013C0.989978 12.3009 0.753517 12.2864 0.518555 12.2578C1.87444 13.1277 3.4517 13.5897 5.06263 13.5888Z" fill="white"/>
</g>
<defs>
<clipPath id="clip0_0_635">
<rect width="14.4444" height="14.4444" fill="white" transform="translate(0.518555 0.498535)"/>
</clipPath>
</defs>
</svg>
