<svg width="48" height="48" viewBox="0 0 48 48" fill="none" xmlns="http://www.w3.org/2000/svg">
<circle cx="24" cy="24" r="24" fill="#FFB577" fill-opacity="0.07"/>
<path d="M28.4063 31.1544V27.7722C28.4063 27.5479 28.324 27.3329 28.1774 27.1743C28.0309 27.0157 27.8322 26.9266 27.625 26.9266H12.7813C12.5741 26.9266 12.3753 27.0157 12.2288 27.1743C12.0823 27.3329 12 27.5479 12 27.7722V31.1544C12 31.3787 12.0823 31.5938 12.2288 31.7523C12.3753 31.9109 12.5741 32 12.7813 32H27.625C27.8322 32 28.0309 31.9109 28.1774 31.7523C28.324 31.5938 28.4063 31.3787 28.4063 31.1544ZM26.8438 30.3089H13.5625V28.6178H26.8438V30.3089ZM14.3438 24.39C14.1366 24.39 13.9378 24.479 13.7913 24.6376C13.6448 24.7962 13.5625 25.0113 13.5625 25.2355C13.5625 25.4598 13.6448 25.6748 13.7913 25.8334C13.9378 25.992 14.1366 26.0811 14.3438 26.0811H26.0625C26.2697 26.0811 26.4684 25.992 26.6149 25.8334C26.7615 25.6748 26.8438 25.4598 26.8438 25.2355C26.8438 25.0113 26.7615 24.7962 26.6149 24.6376C26.4684 24.479 26.2697 24.39 26.0625 24.39H14.3438ZM12.7813 23.5444H27.625C27.8322 23.5444 28.0309 23.4553 28.1774 23.2967C28.324 23.1382 28.4063 22.9231 28.4063 22.6988C28.4063 22.6396 28.3125 16.7799 20.2031 16.7799C12.0938 16.7799 12 22.6396 12 22.6988C12 22.9231 12.0823 23.1382 12.2288 23.2967C12.3753 23.4553 12.5741 23.5444 12.7813 23.5444ZM20.2031 18.471C24.9172 18.471 26.2852 20.6137 26.6817 21.8533H13.7246C14.1211 20.6137 15.4891 18.471 20.2031 18.471ZM36.2188 15.0888H32.193L31.5207 10.7219C31.5055 10.6108 31.4701 10.504 31.4163 10.4079C31.3626 10.3118 31.2917 10.2282 31.2078 10.1621C31.1239 10.0959 31.0287 10.0486 30.9277 10.0227C30.8267 9.99684 30.7219 9.99303 30.6195 10.0115C30.5172 10.0299 30.4192 10.0703 30.3314 10.1302C30.2436 10.1901 30.1677 10.2683 30.1081 10.3603C30.0485 10.4523 30.0065 10.5562 29.9844 10.666C29.9624 10.7758 29.9608 10.8892 29.9797 10.9997L30.609 15.0888H29.9688C29.8626 15.0888 29.7575 15.1122 29.6599 15.1577C29.5623 15.2031 29.4744 15.2696 29.4014 15.3531C29.3283 15.4366 29.2718 15.5353 29.2353 15.6433C29.1987 15.7512 29.1829 15.8661 29.1887 15.9809L29.9699 31.2009C29.9809 31.4168 30.0679 31.62 30.213 31.7686C30.3581 31.9172 30.5503 32 30.75 32H35.4375C35.6372 32 35.8294 31.9172 35.9744 31.7687C36.1195 31.6202 36.2065 31.4172 36.2176 31.2014L36.9989 15.9813C37.0046 15.8665 36.9887 15.7517 36.9521 15.6438C36.9155 15.5359 36.8589 15.4372 36.786 15.3537C36.713 15.2702 36.6251 15.2036 36.5275 15.1581C36.43 15.1125 36.325 15.089 36.2188 15.0888ZM34.6985 30.3089H31.4891L30.7946 16.7799H35.3926L34.6985 30.3089Z" fill="#FFB577"/>
</svg>
