<svg width="48" height="48" viewBox="0 0 48 48" fill="none" xmlns="http://www.w3.org/2000/svg">
<circle cx="24" cy="24" r="24" fill="#FFB577" fill-opacity="0.07"/>
<path d="M34.0896 14.2816V10.6997C34.0859 10.5389 34.0406 10.3819 33.9581 10.2439C33.8757 10.1059 33.7588 9.9916 33.619 9.91223C33.4792 9.83286 33.3212 9.7911 33.1604 9.79103C32.9996 9.79096 32.8416 9.83257 32.7017 9.91182L31.6436 10.5485L30.5855 9.91182C30.4426 9.8269 30.2793 9.78247 30.113 9.78327C29.9468 9.78408 29.7839 9.8301 29.6419 9.9164L28.5884 10.5485L27.5303 9.9164C27.3881 9.82987 27.2249 9.7841 27.0585 9.7841C26.892 9.7841 26.7288 9.82987 26.5867 9.9164L25.5332 10.5485L24.4796 9.9164C24.3375 9.82987 24.1743 9.7841 24.0078 9.7841C23.8414 9.7841 23.6782 9.82987 23.536 9.9164L22.4825 10.5485L21.4244 9.9164C21.2819 9.83079 21.1189 9.78557 20.9526 9.78557C20.7864 9.78557 20.6233 9.83079 20.4808 9.9164L19.4273 10.5485L18.3738 9.9164C18.2317 9.82987 18.0684 9.7841 17.902 9.7841C17.7356 9.7841 17.5724 9.82987 17.4302 9.9164L16.3767 10.5485L15.3232 9.9164C15.1839 9.83576 15.0259 9.79289 14.865 9.79202C14.704 9.79115 14.5456 9.8323 14.4054 9.91141C14.2652 9.99053 14.1481 10.1049 14.0657 10.2431C13.9832 10.3814 13.9383 10.5387 13.9353 10.6997V14.2816C12.7214 20.3842 12.7214 26.666 13.9353 32.7686V36.3505C13.939 36.5113 13.9842 36.6683 14.0667 36.8063C14.1492 36.9443 14.266 37.0586 14.4059 37.138C14.5457 37.2174 14.7037 37.2591 14.8645 37.2592C15.0252 37.2593 15.1833 37.2176 15.3232 37.1384L16.3813 36.5017L17.4394 37.1384C17.5823 37.2233 17.7456 37.2677 17.9118 37.2669C18.078 37.2661 18.2409 37.2201 18.383 37.1338L19.4365 36.5017L20.4946 37.1338C20.6367 37.2203 20.8 37.2661 20.9664 37.2661C21.1328 37.2661 21.296 37.2203 21.4382 37.1338L22.4917 36.5017L23.5452 37.1338C23.6874 37.2203 23.8506 37.2661 24.017 37.2661C24.1834 37.2661 24.3466 37.2203 24.4888 37.1338L25.5423 36.5017L26.6004 37.1338C26.7429 37.2194 26.906 37.2646 27.0722 37.2646C27.2384 37.2646 27.4015 37.2194 27.544 37.1338L28.5975 36.5017L29.651 37.1338C29.7932 37.2203 29.9564 37.2661 30.1228 37.2661C30.2893 37.2661 30.4525 37.2203 30.5946 37.1338L31.6481 36.5017L32.7017 37.1338C32.8411 37.2139 32.9989 37.2563 33.1597 37.2569C33.3204 37.2575 33.4786 37.2163 33.6186 37.1373C33.7586 37.0583 33.8756 36.9442 33.9582 36.8062C34.0408 36.6683 34.086 36.5113 34.0896 36.3505V32.7686C35.3034 26.666 35.3034 20.3842 34.0896 14.2816ZM15.7675 12.3166L15.9049 12.399C16.0471 12.4856 16.2103 12.5313 16.3767 12.5313C16.5431 12.5313 16.7063 12.4856 16.8485 12.399L17.902 11.7669L18.9555 12.399C19.0977 12.4856 19.2609 12.5313 19.4273 12.5313C19.5937 12.5313 19.757 12.4856 19.8991 12.399L20.9526 11.7669L22.0107 12.399C22.1532 12.4846 22.3163 12.5299 22.4825 12.5299C22.6488 12.5299 22.8118 12.4846 22.9543 12.399L24.0078 11.7669L25.0614 12.399C25.2035 12.4856 25.3667 12.5313 25.5332 12.5313C25.6996 12.5313 25.8628 12.4856 26.0049 12.399L27.0585 11.7669L28.1166 12.399C28.2587 12.4858 28.4219 12.5317 28.5884 12.5319C28.7547 12.5305 28.9176 12.4846 29.0602 12.399L30.1137 11.7669L31.1718 12.4036C31.3151 12.4869 31.4778 12.5307 31.6436 12.5307C31.8093 12.5307 31.9721 12.4869 32.1154 12.4036L32.2574 12.3166V13.448H15.7675V12.3166ZM32.2574 34.7336L32.1199 34.6512C31.9778 34.5647 31.8146 34.5189 31.6481 34.5189C31.4817 34.5189 31.3185 34.5647 31.1763 34.6512L30.1228 35.2833L29.0693 34.6512C28.9272 34.5647 28.7639 34.5189 28.5975 34.5189C28.4311 34.5189 28.2679 34.5647 28.1257 34.6512L27.0722 35.2833L26.0141 34.6512C25.8716 34.5656 25.7085 34.5203 25.5423 34.5203C25.3761 34.5203 25.213 34.5656 25.0705 34.6512L24.017 35.2833L22.9635 34.6512C22.8213 34.5647 22.6581 34.5189 22.4917 34.5189C22.3253 34.5189 22.1621 34.5647 22.0199 34.6512L20.9664 35.2833L19.9083 34.6512C19.7658 34.5656 19.6027 34.5203 19.4365 34.5203C19.2703 34.5203 19.1072 34.5656 18.9647 34.6512L17.9112 35.2833L16.8531 34.6466C16.7098 34.5633 16.547 34.5195 16.3813 34.5195C16.2156 34.5195 16.0528 34.5633 15.9095 34.6466L15.7675 34.7336V33.6022H32.2574V34.7336ZM32.4177 31.77H15.6072C14.604 26.3192 14.604 20.731 15.6072 15.2802H32.4177C33.4208 20.731 33.4208 26.3192 32.4177 31.77Z" fill="#FFB577"/>
<path d="M28.0753 20.8272C27.8069 20.5234 27.477 20.2801 27.1074 20.1135C26.7378 19.9468 26.3371 19.8607 25.9316 19.8608H25.5011C25.3086 19.8635 25.1168 19.8849 24.9285 19.9249V18.4866C24.9285 18.2436 24.832 18.0106 24.6602 17.8388C24.4884 17.667 24.2554 17.5705 24.0124 17.5705C23.7694 17.5705 23.5364 17.667 23.3646 17.8388C23.1928 18.0106 23.0963 18.2436 23.0963 18.4866V19.9249C22.908 19.8849 22.7162 19.8635 22.5237 19.8608H22.0932C21.6875 19.8609 21.2866 19.9473 20.9168 20.1141C20.5471 20.2809 20.217 20.5244 19.9485 20.8285C19.68 21.1325 19.4791 21.4901 19.3593 21.8776C19.2394 22.2652 19.2033 22.6737 19.2533 23.0763L19.6838 26.5162C19.7717 27.2077 20.1085 27.8435 20.6312 28.3047C21.1539 28.7658 21.8267 29.0208 22.5237 29.0218C23.0499 29.0211 23.5655 28.8735 24.0124 28.5958C24.4593 28.8735 24.9749 29.0211 25.5011 29.0218C26.1981 29.0208 26.8709 28.7658 27.3936 28.3047C27.9163 27.8435 28.2531 27.2077 28.341 26.5162L28.7716 23.0763C28.8212 22.6735 28.7849 22.2647 28.6648 21.877C28.5448 21.4893 28.3439 21.1315 28.0753 20.8272ZM26.9531 22.8518L26.5225 26.2872C26.4908 26.536 26.3697 26.7647 26.1818 26.9308C25.9938 27.0968 25.7519 27.1888 25.5011 27.1896C25.3509 27.1884 25.2029 27.1541 25.0675 27.0891C24.9322 27.0242 24.8128 26.9303 24.7178 26.814C24.6315 26.7107 24.5236 26.6277 24.4018 26.5707C24.2799 26.5137 24.147 26.4842 24.0124 26.4842C23.8779 26.4842 23.745 26.5137 23.6231 26.5707C23.5012 26.6277 23.3933 26.7107 23.307 26.814C23.2121 26.9303 23.0927 27.0242 22.9573 27.0891C22.8219 27.1541 22.6739 27.1884 22.5237 27.1896C22.273 27.1888 22.031 27.0968 21.8431 26.9308C21.6551 26.7647 21.534 26.536 21.5023 26.2872L21.0717 22.8518C21.0539 22.707 21.067 22.56 21.1102 22.4205C21.1533 22.2811 21.2255 22.1524 21.322 22.0429C21.4186 21.9334 21.5372 21.8456 21.6701 21.7853C21.803 21.7249 21.9472 21.6935 22.0932 21.693H22.5237C22.6739 21.6942 22.8219 21.7285 22.9573 21.7934C23.0927 21.8583 23.2121 21.9523 23.307 22.0686C23.3963 22.167 23.5052 22.2456 23.6266 22.2995C23.7481 22.3533 23.8795 22.3811 24.0124 22.3811C24.1453 22.3811 24.2767 22.3533 24.3982 22.2995C24.5197 22.2456 24.6285 22.167 24.7178 22.0686C24.8128 21.9523 24.9322 21.8583 25.0675 21.7934C25.2029 21.7285 25.3509 21.6942 25.5011 21.693H25.9316C26.0776 21.6935 26.2218 21.7249 26.3547 21.7853C26.4876 21.8456 26.6063 21.9334 26.7028 22.0429C26.7993 22.1524 26.8715 22.2811 26.9146 22.4205C26.9578 22.56 26.9709 22.707 26.9531 22.8518Z" fill="#FFB577"/>
</svg>
